<?xml version="1.0" standalone="no"?>
<!DOCTYPE svg PUBLIC "-//W3C//DTD SVG 20010904//EN"
 "http://www.w3.org/TR/2001/REC-SVG-20010904/DTD/svg10.dtd">
<svg version="1.0" xmlns="http://www.w3.org/2000/svg"
 width="60px" height="60px" viewBox="0 0 500.000000 500.000000"
 preserveAspectRatio="xMidYMid meet">

<g transform="translate(0.000000,500.000000) scale(0.100000,-0.100000)"
fill="#000000" stroke="none">
<path d="M2480 4089 c-106 -9 -242 -45 -339 -90 -77 -35 -216 -127 -255 -168
l-27 -29 273 -5 c295 -6 350 -13 456 -64 75 -36 161 -123 196 -196 53 -113 56
-145 56 -734 l0 -543 -60 0 -60 0 0 301 0 301 -47 -43 c-27 -23 -84 -59 -128
-80 -126 -59 -196 -69 -485 -69 l-250 0 0 542 0 541 -26 -24 c-30 -28 -121
-164 -154 -229 -13 -24 -35 -81 -51 -126 -157 -453 15 -961 416 -1231 317
-213 728 -241 1065 -73 87 44 162 93 223 146 l44 38 -151 175 c-318 370 -309
358 -294 379 7 10 117 126 245 256 147 151 238 236 248 234 11 -2 -52 -73
-195 -220 -118 -121 -208 -222 -205 -228 4 -6 103 -124 221 -261 l213 -250 44
59 c347 472 244 1138 -232 1491 -215 159 -452 223 -741 200z"/>
<path d="M1930 3230 l0 -530 173 0 c195 0 267 13 358 61 169 91 259 284 245
529 -11 207 -93 350 -240 419 -90 43 -148 51 -351 51 l-185 0 0 -530z"/>
</g>
</svg>
